# xmcd
#
# Track frame offsets: 
#        183
#        14533
#        29308
#        40333
#        51733
#        68608
#        82183
#        96433
#        109708
#        119458
#        134008
#        149533
#        163858
#        181633
#        194008
#        213508
#
# Disc length: 3176 seconds
#
# Revision: 0
# Processed by: cddbd v1.5.2PL0 Copyright (c) Steve Scherf et al.
# Submitted via: ExactAudioCopy v0.99pb4
#
DISCID=f90c6610
DTITLE=Various Artist - Lieder die von Herzen kommen
DYEAR=1900
DGENRE=Volksmusik
TTITLE0=Gitti und Erica - Lieder Die Von Herzen Kommen
TTITLE1=Franzl Lang - Wenn wir schaun übern Zaun
TTITLE2=Das Hellberg Duo - Frischer Wind weht von den Bergen
TTITLE3=Carla Lodders - Dat Du Min Leevsten Büst
TTITLE4=Die 3 Zwidern - Olwei Lustig
TTITLE5=Grenzlandchor Arnoldstein - In De Mölltalleitn
TTITLE6=Die Fidelen Holzhacker - Zwei Maschen Links, Zwei Maschen Rech
TTITLE6=ts
TTITLE7=Musikkorps Münster - Tölzer Schützenmarsch
TTITLE8=Karl Moik - Blumen aus den Bergen
TTITLE9=Walter Scholz - Echo Der Liebe
TTITLE10=Die Original Lechschwaben - Des Is Halt Der Bayrische Brauch
TTITLE11=Geschwister Schneider - Mei, Is Dees A Schöner Tag
TTITLE12=Karl Ridderbusch - An Der Weser
TTITLE13=Ester Egli - Heut Gehn Wir Zum Schützenfest
TTITLE14=Vico Toriani - La Paloma Ade
TTITLE15=Heino - Potpouri
EXTD=
EXTT0=
EXTT1=
EXTT2=
EXTT3=
EXTT4=
EXTT5=
EXTT6=
EXTT7=
EXTT8=
EXTT9=
EXTT10=
EXTT11=
EXTT12=
EXTT13=
EXTT14=
EXTT15=
PLAYORDER=
